<?xml version="1.0" standalone="no"?>
<!DOCTYPE svg PUBLIC "-//W3C//DTD SVG 20010904//EN"
 "http://www.w3.org/TR/2001/REC-SVG-20010904/DTD/svg10.dtd">
<svg version="1.0" xmlns="http://www.w3.org/2000/svg"
 width="700.000000pt" height="700.000000pt" viewBox="0 0 700.000000 700.000000"
 preserveAspectRatio="xMidYMid meet">
<metadata>
Created by potrace 1.14, written by Peter Selinger 2001-2017
</metadata>
<g transform="translate(0.000000,700.000000) scale(0.100000,-0.100000)"
fill="#000000" stroke="none">
<path d="M5635 5962 c-76 -58 -200 -116 -290 -135 -185 -41 -302 -31 -534 45
-234 76 -313 69 -406 -33 -30 -33 -115 -192 -115 -214 0 -3 374 -5 830 -5
l830 0 0 -223 0 -223 123 -13 c194 -20 207 -22 207 -39 0 -14 -365 -1688 -376
-1724 -5 -16 3 -18 74 -18 l80 0 15 68 c8 37 70 330 138 651 68 321 129 590
136 597 22 22 138 28 206 11 34 -8 70 -19 80 -22 17 -7 17 -5 1 36 -9 24 -58
130 -109 234 l-94 190 14 65 c7 36 12 66 10 68 -1 2 -29 6 -60 9 l-57 6 -98
132 c-150 203 -322 392 -485 531 l-60 52 -60 -46z"/>
<path d="M2364 5628 c-10 -51 -26 -100 -35 -108 -9 -8 -37 -32 -63 -53 -26
-22 -99 -104 -162 -182 -137 -172 -193 -223 -299 -275 -129 -63 -281 -84 -435
-59 -133 21 -385 123 -500 201 -19 13 -40 27 -47 31 -14 9 -122 -184 -195
-347 -108 -244 -193 -523 -237 -783 -29 -166 -29 -163 17 -163 21 0 64 -7 95
-15 218 -57 369 -234 433 -510 15 -60 30 -119 34 -130 5 -11 9 242 9 563 l1
582 638 0 638 0 123 583 c67 320 125 585 129 588 4 4 256 -21 560 -55 l552
-62 0 78 c0 43 -2 78 -5 78 -2 0 -274 29 -603 65 -330 36 -606 65 -614 65 -11
0 -21 -26 -34 -92z"/>
<path d="M2472 5228 c-35 -161 -89 -417 -120 -568 l-58 -275 503 -3 503 -2 0
-746 c0 -515 -3 -752 -11 -766 -6 -11 -8 -22 -5 -25 3 -4 108 -23 233 -44 126
-21 240 -40 256 -43 l27 -6 0 315 0 315 1033 0 1032 0 184 843 c102 463 186
851 189 863 3 19 -3 21 -115 33 -65 6 -130 14 -145 17 l-28 6 0 -497 c0 -534
0 -537 -53 -593 -51 -55 5 -52 -1112 -52 -1136 0 -1065 -4 -1118 60 -15 17
-31 47 -37 68 -6 24 -10 261 -10 655 0 339 -4 617 -8 617 -13 0 -990 108
-1038 115 l-40 6 -62 -293z"/>
<path d="M4212 4783 l3 -328 88 -3 87 -3 0 331 0 330 -90 0 -90 0 2 -327z"/>
<path d="M5190 4735 l0 -285 90 0 90 0 0 285 0 285 -90 0 -90 0 0 -285z"/>
<path d="M3792 4363 c3 -17 60 -18 1028 -18 968 0 1025 1 1028 18 3 16 -51 17
-1028 17 -977 0 -1031 -1 -1028 -17z"/>
<path d="M2055 4191 c-210 -34 -389 -158 -480 -333 l-40 -76 -95 38 c-94 37
-95 38 -98 74 l-3 36 -70 0 -69 0 0 -75 0 -75 70 0 c56 0 70 3 70 15 0 21 7
19 100 -17 l82 -32 -9 -45 c-11 -64 -10 -278 2 -290 7 -7 66 -1 181 16 l170
27 -4 81 c-5 94 12 144 68 209 54 61 121 90 210 90 89 0 156 -29 210 -90 55
-64 73 -115 68 -203 -3 -42 -6 -82 -9 -90 -3 -8 50 -44 149 -102 l153 -89 19
43 c59 132 65 318 16 458 -14 41 -26 78 -26 82 0 3 35 24 77 46 70 37 85 41
150 41 l73 0 0 75 0 75 -69 0 -70 0 -3 -52 -3 -53 -85 -47 c-47 -25 -88 -47
-91 -47 -3 -1 -23 25 -45 56 -73 106 -215 202 -350 237 -77 19 -186 27 -249
17z"/>
<path d="M1623 3161 l-148 -130 -62 -1 -63 0 0 -75 0 -76 73 3 72 3 5 61 5 61
143 123 c134 115 155 141 133 155 -6 3 -77 -53 -158 -124z"/>
<path d="M4030 2625 l0 -485 -43 0 c-24 0 -47 -3 -50 -7 -14 -14 17 -33 54
-33 28 0 39 -4 39 -15 0 -8 9 -15 20 -15 11 0 20 7 20 15 0 13 108 15 911 15
890 0 961 2 944 31 -4 5 -358 9 -931 9 l-924 0 0 485 c0 478 0 485 -20 485
-20 0 -20 -7 -20 -485z"/>
<path d="M4114 3045 c-4 -9 -4 -64 -2 -123 6 -111 24 -184 61 -236 32 -46 41
-10 12 50 -29 58 -48 170 -43 255 2 43 -1 63 -9 66 -7 3 -16 -3 -19 -12z"/>
<path d="M5240 2998 c-52 -36 -77 -97 -94 -236 -16 -133 -33 -179 -77 -216
-31 -27 -38 -46 -15 -46 28 0 75 52 94 103 11 29 25 98 31 154 13 120 32 173
74 209 25 21 38 25 65 20 54 -8 112 -74 112 -125 0 -11 9 -25 20 -31 24 -13
25 -4 9 55 -31 113 -137 168 -219 113z"/>
<path d="M4690 2888 c-50 -34 -139 -158 -130 -182 5 -16 16 -7 62 56 85 115
125 138 176 102 33 -23 52 -67 59 -140 7 -76 26 -82 31 -10 10 147 -98 241
-198 174z"/>
<path d="M5876 2869 c-14 -17 -37 -69 -51 -117 -47 -159 -71 -199 -138 -233
-29 -16 -52 -20 -84 -16 -37 4 -43 2 -43 -14 0 -16 8 -19 52 -19 68 0 129 30
168 83 18 25 45 87 65 152 19 61 44 124 55 140 38 57 19 76 -24 24z"/>
<path d="M3213 2783 c-37 -22 -44 -23 -292 -23 -140 0 -252 -2 -250 -4 4 -5
1101 -196 1120 -196 5 0 9 35 9 78 l0 77 -274 46 -275 45 -38 -23z"/>
<path d="M5440 2719 c0 -75 21 -154 51 -193 12 -15 23 -25 26 -23 2 3 -5 31
-16 63 -12 32 -24 86 -27 121 -4 35 -13 71 -20 80 -12 16 -13 9 -14 -48z"/>
<path d="M1455 2719 c-44 -23 -287 -150 -540 -282 -253 -132 -530 -276 -615
-320 -170 -88 -165 -85 -159 -91 2 -2 966 -201 2141 -442 l2137 -438 383 289
c211 158 392 296 403 307 20 19 17 19 -165 16 l-185 -3 -303 -203 -302 -202
-1243 251 c-683 137 -1498 302 -1812 365 -676 135 -615 121 -615 137 0 11 422
247 1095 614 l61 33 364 -66 c201 -35 655 -116 1010 -179 355 -63 655 -117
668 -120 21 -5 22 -3 22 64 l0 70 -52 10 c-29 6 -330 59 -668 118 l-615 107
-465 3 -465 3 -80 -41z"/>
<path d="M1661 2668 c-88 -49 -94 -45 115 -83 l152 -28 78 46 c69 40 75 46 53
51 -37 9 -306 56 -315 56 -5 0 -42 -19 -83 -42z"/>
<path d="M4466 2644 c-40 -28 -57 -34 -100 -34 -33 0 -62 7 -84 20 -39 24 -52
25 -52 5 0 -20 54 -52 101 -60 70 -12 199 44 199 86 0 25 -6 23 -64 -17z"/>
<path d="M2061 2593 c-41 -26 -70 -48 -65 -50 5 -1 113 -23 239 -48 l230 -45
78 47 c42 26 77 50 77 53 0 3 -98 23 -217 44 -120 21 -229 40 -243 42 -18 3
-47 -9 -99 -43z"/>
<path d="M4870 2591 c18 -65 67 -111 118 -111 20 0 21 3 12 20 -6 11 -19 20
-30 20 -21 0 -58 42 -66 77 -4 13 -14 23 -24 23 -16 0 -17 -5 -10 -29z"/>
<path d="M1423 2538 c-51 -28 -91 -53 -90 -55 2 -2 83 -19 179 -38 l176 -36
69 42 c104 63 115 70 110 75 -7 7 -299 64 -327 64 -14 0 -67 -24 -117 -52z"/>
<path d="M2601 2492 c-60 -38 -70 -48 -55 -54 21 -8 433 -88 455 -88 15 0 174
99 168 105 -6 5 -461 85 -479 84 -8 -1 -48 -22 -89 -47z"/>
<path d="M1843 2462 c-51 -31 -90 -59 -87 -62 3 -3 110 -26 237 -52 l232 -46
92 56 c51 32 93 59 93 62 0 3 -102 25 -227 49 -126 24 -232 45 -238 47 -5 1
-51 -23 -102 -54z"/>
<path d="M1153 2391 c-57 -31 -103 -58 -103 -61 0 -3 84 -22 186 -43 l186 -37
104 62 c57 35 104 65 104 68 0 8 -320 70 -350 69 -14 -1 -71 -27 -127 -58z"/>
<path d="M3150 2393 c-88 -55 -84 -52 -79 -57 2 -2 103 -23 224 -46 121 -23
227 -43 235 -46 15 -4 195 104 187 112 -6 7 -438 84 -467 84 -14 0 -59 -21
-100 -47z"/>
<path d="M2376 2353 c-73 -46 -86 -58 -70 -64 10 -4 117 -26 237 -50 l218 -44
42 24 c81 47 149 93 144 98 -6 6 -446 93 -467 92 -8 0 -55 -25 -104 -56z"/>
<path d="M1581 2305 c-62 -38 -99 -66 -90 -69 8 -3 117 -25 242 -51 l229 -45
103 62 c58 35 104 66 105 69 0 6 -455 100 -475 98 -5 0 -57 -29 -114 -64z"/>
<path d="M3696 2293 c-101 -64 -102 -63 27 -87 l77 -14 0 79 c0 44 -3 79 -7
79 -5 0 -48 -26 -97 -57z"/>
<path d="M2916 2247 l-98 -62 244 -48 244 -49 92 58 c51 33 92 61 92 65 0 3
-102 25 -227 48 -126 24 -232 45 -238 47 -5 2 -54 -25 -109 -59z"/>
<path d="M822 2209 c-90 -50 -162 -93 -160 -95 3 -2 93 -22 201 -44 l196 -40
150 91 c83 49 151 93 151 97 0 6 -353 83 -370 82 -3 -1 -78 -42 -168 -91z"/>
<path d="M2121 2195 c-62 -38 -99 -66 -90 -69 8 -3 117 -25 243 -51 l228 -45
62 38 c33 21 81 51 104 66 24 15 42 29 40 32 -6 5 -447 94 -467 94 -9 0 -63
-29 -120 -65z"/>
<path d="M1273 2117 c-84 -50 -149 -94 -145 -98 4 -3 112 -27 241 -52 l234
-47 153 93 c84 50 149 95 146 98 -6 5 -459 100 -472 99 -3 -1 -73 -42 -157
-93z"/>
<path d="M3460 2144 c-47 -30 -86 -58 -88 -62 -1 -4 87 -25 195 -46 109 -22
206 -41 216 -44 15 -4 17 5 17 80 l0 84 -113 22 c-62 12 -120 22 -128 21 -8 0
-52 -25 -99 -55z"/>
<path d="M2667 2091 c-58 -36 -103 -69 -99 -72 4 -3 112 -27 241 -53 l233 -46
104 66 c58 37 102 69 100 72 -3 2 -111 26 -240 52 l-234 47 -105 -66z"/>
<path d="M1817 2008 c-82 -50 -145 -94 -140 -98 4 -4 113 -28 241 -53 l233
-46 151 94 c86 54 145 96 137 99 -17 6 -457 96 -467 96 -4 0 -74 -41 -155 -92z"/>
<path d="M3208 1983 c-59 -37 -104 -70 -100 -74 4 -3 112 -27 241 -53 l233
-46 104 67 c57 37 104 70 104 73 0 3 -102 25 -227 49 -126 24 -233 45 -238 48
-6 2 -58 -27 -117 -64z"/>
<path d="M2357 1897 c-114 -71 -143 -94 -130 -99 10 -5 119 -28 243 -53 l224
-45 46 28 c196 123 248 158 242 163 -6 5 -458 100 -472 99 -3 0 -71 -42 -153
-93z"/>
<path d="M3711 1851 c-59 -39 -70 -50 -55 -55 10 -3 120 -26 243 -51 l224 -46
41 28 41 28 -145 5 c-87 3 -154 10 -166 17 -30 17 -73 70 -80 99 -3 13 -11 24
-18 24 -6 -1 -44 -23 -85 -49z"/>
<path d="M2902 1788 c-79 -50 -140 -94 -135 -98 4 -4 113 -28 242 -54 l233
-46 144 92 c79 51 140 96 136 99 -6 5 -458 100 -472 99 -3 0 -69 -41 -148 -92z"/>
<path d="M3441 1675 c-83 -54 -138 -96 -130 -99 8 -2 118 -25 245 -51 l231
-46 142 92 c78 51 138 96 134 99 -7 6 -458 101 -473 100 -3 0 -70 -43 -149
-95z"/>
<path d="M4230 1726 c-37 -23 -50 -36 -40 -40 8 -3 98 -21 199 -41 l183 -37
99 67 c55 36 97 70 94 75 -4 6 -101 10 -244 10 l-237 0 -54 -34z"/>
<path d="M3987 1567 c-76 -50 -134 -94 -130 -97 5 -4 93 -24 197 -44 l188 -37
140 92 c112 75 136 95 122 101 -21 8 -360 79 -372 77 -4 0 -69 -42 -145 -92z"/>
<path d="M3016 1237 c45 -86 64 -164 64 -270 0 -223 -137 -427 -372 -552 -33
-18 -56 -35 -52 -37 23 -14 268 -71 395 -93 226 -38 386 -48 644 -42 284 7
446 28 710 93 140 35 138 33 66 60 -112 42 -277 134 -359 200 -160 128 -241
284 -242 462 0 34 -2 62 -5 62 -3 0 -199 41 -437 90 -237 50 -435 90 -439 90
-3 0 8 -28 27 -63z"/>
</g>
</svg>
